<?xml version="1.0" encoding="iso-8859-1"?>
<!-- Generator: Adobe Illustrator 19.0.0, SVG Export Plug-In . SVG Version: 6.00 Build 0)  -->
<svg version="1.1" id="Layer_1" xmlns="http://www.w3.org/2000/svg" xmlns:xlink="http://www.w3.org/1999/xlink" x="0px" y="0px"
	 viewBox="0 0 485 485" style="enable-background:new 0 0 485 485;" xml:space="preserve">
<g>
	<path d="M0,0v485h485V0H0z M455,455H30V30h425V455z"/>
	<path d="M405,80H227.5v109.596c-23.057,6.547-40,27.777-40,52.904c0,30.327,24.673,55,55,55s55-24.673,55-55
		c0-25.127-16.943-46.356-40-52.904V110H375v265H110V110h72.5V80H80v325h325V80z M267.5,242.5c0,13.785-11.215,25-25,25
		s-25-11.215-25-25s11.215-25,25-25S267.5,228.715,267.5,242.5z"/>
</g>
<g>
</g>
<g>
</g>
<g>
</g>
<g>
</g>
<g>
</g>
<g>
</g>
<g>
</g>
<g>
</g>
<g>
</g>
<g>
</g>
<g>
</g>
<g>
</g>
<g>
</g>
<g>
</g>
<g>
</g>
</svg>
