<?xml version="1.0" encoding="iso-8859-1"?>
<!-- Generator: Adobe Illustrator 19.0.0, SVG Export Plug-In . SVG Version: 6.00 Build 0)  -->
<svg version="1.1" id="Layer_1" xmlns="http://www.w3.org/2000/svg" xmlns:xlink="http://www.w3.org/1999/xlink" x="0px" y="0px"
	 viewBox="0 0 485 485" style="enable-background:new 0 0 485 485;" xml:space="preserve">
<g>
	<path d="M485,30V0H0v30h27.5v50H0v325h27.5v50H0v30h485v-30h-27.5v-50H485V80h-27.5V30H485z M455,110v265H30V110H455z M187.5,405
		v50h-50v-50H187.5z M217.5,405h50v50h-50V405z M297.5,405h50v50h-50V405z M217.5,80V30h50v50H217.5z M187.5,80h-50V30h50V80z
		 M297.5,80V30h50v50H297.5z M57.5,30h50v50h-50V30z M57.5,405h50v50h-50V405z M427.5,455h-50v-50h50V455z M427.5,80h-50V30h50V80z"
		/>
	<polygon points="201.878,172.5 201.878,312.5 323.122,242.5 	"/>
</g>
<g>
</g>
<g>
</g>
<g>
</g>
<g>
</g>
<g>
</g>
<g>
</g>
<g>
</g>
<g>
</g>
<g>
</g>
<g>
</g>
<g>
</g>
<g>
</g>
<g>
</g>
<g>
</g>
<g>
</g>
</svg>
